<?xml version="1.0" standalone="no"?>
<!DOCTYPE svg PUBLIC "-//W3C//DTD SVG 20010904//EN"
 "http://www.w3.org/TR/2001/REC-SVG-20010904/DTD/svg10.dtd">
<svg version="1.0" xmlns="http://www.w3.org/2000/svg"
 width="1022.000000pt" height="1280.000000pt" viewBox="0 0 1022.000000 1280.000000"
 preserveAspectRatio="xMidYMid meet">

<g transform="translate(0.000000,1280.000000) scale(0.100000,-0.100000)"
fill="#000000" stroke="none">
<path d="M2250 12073 c-14 -2 -34 -8 -45 -13 -11 -5 -207 -11 -444 -12 -329
-2 -425 -6 -429 -15 -2 -7 -9 -13 -17 -13 -7 0 -18 -7 -25 -15 -7 -8 -21 -15
-32 -15 -20 0 -97 -40 -137 -71 -13 -10 -34 -19 -46 -19 -14 0 -25 -7 -28 -20
-3 -11 -14 -20 -24 -20 -19 0 -53 -32 -53 -50 0 -6 -6 -10 -14 -10 -7 0 -31
-21 -51 -46 -21 -26 -70 -78 -110 -118 -39 -39 -75 -79 -78 -89 -4 -11 -16
-21 -27 -24 -11 -3 -20 -13 -20 -23 0 -9 -9 -25 -20 -35 -11 -10 -20 -23 -20
-29 -1 -18 -37 -56 -53 -56 -9 0 -17 -14 -20 -36 -4 -20 -16 -47 -28 -60 -12
-13 -27 -32 -33 -42 -6 -11 -40 -64 -76 -118 -36 -54 -72 -112 -79 -129 -8
-16 -21 -44 -29 -61 -12 -25 -14 -62 -10 -196 l5 -166 32 -34 c17 -18 31 -39
31 -46 0 -17 42 -106 52 -110 4 -2 8 -17 8 -33 0 -16 5 -29 10 -29 6 0 10 -59
10 -157 l0 -158 47 -135 c44 -129 79 -190 109 -190 7 0 25 -24 39 -52 15 -29
42 -67 61 -84 19 -18 34 -41 34 -54 0 -12 14 -42 30 -67 17 -24 37 -57 45 -74
15 -28 18 -29 85 -29 38 0 71 -4 74 -9 3 -4 27 -11 54 -15 27 -3 58 -15 70
-26 12 -11 33 -20 47 -20 14 0 25 -4 25 -10 0 -5 24 -10 54 -10 30 0 58 -4 61
-10 3 -5 16 -10 28 -10 23 0 77 -40 77 -57 0 -5 6 -21 13 -36 10 -23 18 -27
55 -27 l42 0 0 -48 c0 -52 20 -79 88 -118 17 -10 32 -21 32 -25 0 -4 11 -10
24 -13 13 -3 32 -18 41 -33 10 -16 27 -35 37 -44 19 -17 26 -89 8 -89 -5 0
-10 -13 -10 -30 0 -16 -4 -30 -10 -30 -5 0 -10 -11 -10 -24 0 -14 -4 -28 -10
-31 -5 -3 -10 -15 -10 -26 0 -10 -4 -19 -9 -19 -5 0 -11 -13 -14 -30 -4 -16
-12 -30 -19 -30 -6 0 -37 -26 -67 -59 -31 -32 -66 -61 -79 -65 -12 -4 -22 -15
-22 -24 0 -10 -13 -44 -30 -75 -16 -32 -30 -66 -30 -76 0 -9 -9 -27 -20 -39
-11 -12 -20 -28 -20 -37 0 -16 -16 -49 -39 -77 -17 -22 -62 -110 -58 -115 8
-7 50 65 128 217 96 189 129 230 187 230 43 0 92 19 92 36 0 7 11 15 24 18 14
3 33 19 42 35 10 16 26 32 37 35 16 4 18 12 16 53 -3 45 -2 48 21 49 14 0 38
-6 53 -13 16 -8 72 -19 125 -24 54 -5 138 -18 187 -29 50 -11 115 -25 145 -30
49 -9 117 -23 230 -49 19 -4 44 -12 55 -18 11 -6 26 -8 33 -6 7 3 18 0 26 -6
7 -6 21 -12 32 -14 10 -1 24 -5 29 -9 6 -3 35 -9 65 -13 79 -10 83 -15 75
-104 -7 -78 8 -301 23 -341 7 -17 17 -23 49 -24 22 -1 48 -9 57 -18 22 -23
122 -59 176 -65 l45 -5 -30 21 c-16 12 -40 21 -52 21 -13 0 -23 4 -23 8 0 5
-18 17 -40 28 -22 10 -40 22 -40 25 0 4 -12 9 -28 12 -23 5 -86 47 -69 47 3 0
52 -23 108 -51 56 -28 131 -60 168 -69 140 -38 152 -47 165 -116 3 -12 10 -31
17 -42 7 -10 9 -27 6 -36 -5 -14 -11 -15 -27 -6 -17 9 -20 8 -20 -8 0 -12 17
-26 48 -42 53 -26 105 -96 162 -216 33 -69 68 -123 102 -157 10 -10 21 -30 24
-45 13 -51 51 -97 154 -182 176 -146 170 -139 394 -455 22 -30 47 -63 55 -72
71 -79 161 -231 161 -270 0 -21 -55 -157 -78 -190 -19 -30 -25 -29 -77 7 -24
17 -46 30 -49 30 -6 0 -109 63 -116 71 -6 7 -243 127 -615 312 -138 68 -268
135 -290 148 -22 14 -74 42 -115 63 -41 22 -106 58 -145 81 -38 22 -92 50
-120 61 -27 10 -53 21 -57 22 -5 2 -5 -3 -2 -12 3 -8 13 -18 22 -21 31 -9 112
-95 136 -143 13 -26 31 -85 40 -131 8 -46 18 -87 22 -90 3 -3 12 3 20 13 13
18 16 18 93 -17 69 -32 90 -37 155 -37 41 0 76 -3 78 -8 2 -4 29 -15 62 -26
32 -10 90 -38 130 -63 39 -24 80 -50 90 -56 118 -72 218 -172 314 -316 44 -65
86 -137 92 -158 7 -21 19 -48 27 -60 8 -12 12 -27 9 -32 -10 -16 12 -22 33 -9
11 7 28 27 38 45 23 43 33 42 33 -4 0 -43 29 -111 83 -195 21 -31 37 -59 37
-62 0 -3 19 -33 43 -68 23 -35 47 -72 54 -83 6 -11 38 -63 71 -115 61 -99 64
-104 150 -245 29 -48 71 -112 94 -143 l42 -57 8 40 c5 22 13 44 18 49 6 6 10
18 10 28 0 10 6 18 14 18 8 0 17 7 20 16 4 10 14 14 26 11 11 -3 20 0 20 5 0
6 8 1 19 -10 10 -12 21 -22 24 -22 11 0 -7 46 -26 67 -11 13 -17 26 -14 30 4
3 15 -3 24 -15 46 -54 53 -63 53 -70 0 -5 14 -21 31 -38 l32 -29 -7 27 c-6 28
8 40 17 16 4 -10 6 -10 6 0 1 7 16 12 41 12 22 0 40 5 40 11 0 6 11 -3 25 -19
14 -17 25 -34 25 -39 0 -5 7 -18 16 -28 41 -53 223 -404 279 -541 21 -49 41
-93 45 -99 4 -5 21 -46 38 -90 17 -44 51 -129 76 -190 25 -60 46 -119 46 -131
0 -28 23 -74 36 -74 7 0 14 -8 17 -18 3 -9 13 -28 21 -42 21 -34 76 -157 76
-169 0 -5 4 -11 8 -13 5 -1 23 -39 41 -83 18 -44 67 -152 108 -240 109 -234
113 -241 113 -230 0 16 -37 109 -59 146 -10 19 -27 61 -37 94 -9 33 -34 96
-56 140 -22 44 -53 117 -69 163 -17 46 -45 107 -64 136 -19 29 -43 82 -55 117
-12 35 -32 81 -46 101 -13 21 -24 40 -24 44 0 3 -7 20 -15 37 -24 53 -55 137
-50 137 2 0 -11 32 -30 72 -19 40 -35 80 -35 88 0 9 -11 31 -24 49 -13 18 -34
60 -47 94 -12 34 -26 67 -30 73 -10 13 -54 163 -64 218 -7 36 -6 38 14 31 17
-5 21 -2 21 18 0 14 -7 30 -15 37 -8 6 -14 24 -13 38 0 15 -5 43 -10 62 -28
93 -28 87 -4 67 11 -10 23 -31 27 -45 10 -42 38 -102 47 -102 5 0 16 -16 24
-35 12 -31 17 -34 43 -29 21 4 37 0 60 -17 29 -21 36 -22 145 -16 87 5 116 4
119 -6 4 -8 14 -3 31 15 28 31 46 36 46 12 0 -23 22 -12 40 21 15 26 20 28 79
29 51 1 66 -3 75 -16 6 -10 19 -18 28 -18 14 0 18 -8 18 -40 0 -38 13 -54 23
-27 3 6 4 -4 3 -23 -1 -24 3 -34 12 -32 20 4 25 -25 13 -73 -6 -25 -8 -63 -5
-85 6 -39 8 -40 45 -40 21 0 41 -4 44 -10 11 -18 25 -10 25 14 0 13 7 29 16
37 8 7 13 20 11 30 -3 12 0 15 14 12 11 -3 19 -10 19 -15 0 -6 16 -51 36 -100
42 -105 60 -173 68 -248 4 -47 49 -195 68 -225 17 -27 62 -215 145 -595 17
-80 36 -263 31 -307 -2 -18 -1 -34 3 -35 4 -2 9 -74 11 -160 1 -87 6 -158 11
-158 4 0 7 -20 7 -44 0 -35 -5 -48 -22 -60 l-21 -15 24 -20 c13 -11 32 -20 42
-21 23 0 25 -80 2 -80 -11 0 -15 -11 -15 -40 0 -36 -2 -40 -25 -40 -14 0 -25
5 -25 11 0 6 -7 4 -15 -5 -18 -18 -20 -47 -2 -40 20 7 67 -50 60 -74 -3 -14 1
-22 16 -27 12 -3 21 -15 21 -26 0 -12 7 -19 19 -19 45 0 68 -159 36 -250 -8
-22 -12 -47 -9 -55 3 -8 -1 -22 -10 -30 -9 -9 -16 -32 -16 -51 0 -22 -6 -37
-16 -41 -10 -4 -14 -13 -10 -29 3 -12 2 -26 -4 -29 -13 -8 -13 -149 -1 -173
19 -35 64 -139 88 -202 14 -36 33 -81 44 -101 10 -20 25 -62 33 -95 8 -32 21
-79 29 -104 35 -103 39 -126 38 -230 -1 -60 -8 -142 -16 -182 -16 -73 -44
-159 -55 -168 -4 -3 -17 -24 -30 -47 -13 -23 -27 -40 -32 -37 -4 3 -8 1 -8 -5
0 -24 -123 -133 -177 -158 -54 -25 -82 -47 -83 -65 0 -5 221 -8 491 -8 l492 0
-5 107 c-4 70 -11 119 -21 138 -9 17 -25 80 -37 140 -11 61 -25 124 -30 141
-6 16 -13 59 -16 95 -4 35 -20 116 -35 179 -16 63 -29 125 -29 138 0 12 -9 41
-19 65 -11 23 -27 65 -36 92 -9 28 -25 65 -36 84 -11 18 -34 81 -51 140 -50
168 -49 277 6 516 14 61 32 191 41 290 22 251 41 378 65 428 12 23 24 61 27
84 3 24 10 43 14 43 5 0 9 9 9 19 0 11 5 23 10 26 14 9 13 45 -1 45 -7 0 -24
13 -38 28 -90 98 -109 120 -131 161 -16 28 -39 52 -58 61 -22 10 -32 22 -32
38 0 13 4 20 10 17 6 -3 10 -13 10 -21 0 -8 4 -14 10 -14 9 0 4 22 -9 45 -3 6
-13 33 -22 60 -9 28 -20 49 -25 48 -6 -1 -11 8 -11 20 -3 40 -13 67 -24 67 -6
0 -9 -9 -6 -20 3 -11 1 -23 -4 -26 -5 -3 -9 0 -9 5 0 6 -18 11 -40 11 -28 0
-40 4 -40 14 0 8 6 16 12 19 8 2 9 8 4 13 -5 5 -11 4 -13 -3 -3 -7 -16 -13
-29 -13 -16 0 -24 -6 -23 -17 0 -28 26 -155 37 -188 11 -32 41 -162 53 -235 5
-25 13 -67 19 -95 7 -27 14 -71 17 -98 4 -39 2 -47 -12 -47 -9 0 -19 9 -22 20
-3 11 -11 20 -18 20 -8 0 -11 8 -8 19 2 10 -5 43 -17 72 -12 30 -29 70 -37 89
-8 19 -21 47 -29 62 -7 14 -14 38 -14 52 0 14 -3 26 -7 26 -5 0 -9 15 -10 33
-1 17 -11 61 -22 96 -12 35 -21 74 -21 86 0 13 -4 25 -9 27 -5 1 -12 26 -15
53 -8 69 -37 237 -44 255 -15 39 -24 170 -12 170 15 0 12 26 -5 40 -20 17 -19
40 3 40 16 1 16 1 0 14 -10 7 -18 22 -18 33 0 40 -31 135 -56 173 -29 44 -44
51 -44 20 0 -25 -18 -26 -27 -3 -4 10 -21 32 -38 48 -17 17 -40 49 -50 73 -10
23 -22 42 -26 42 -4 0 -9 11 -11 25 -7 32 2 32 27 -2 36 -49 64 -78 65 -67 0
6 -16 32 -35 57 -19 25 -35 52 -35 61 0 8 -10 27 -22 43 -30 37 -40 53 -87
143 -21 41 -46 89 -55 105 -9 17 -16 38 -16 48 0 9 -4 17 -10 17 -5 0 -14 19
-21 43 -6 23 -20 61 -30 84 -11 24 -19 45 -19 47 0 2 -15 37 -34 78 -19 40
-37 87 -41 104 -3 17 -17 46 -31 65 -25 34 -32 55 -14 44 12 -8 12 -2 -1 55
-6 25 -16 52 -23 60 -8 8 -19 33 -26 55 -20 64 -50 118 -81 146 -24 21 -27 30
-20 55 8 29 8 29 77 27 92 -3 339 -50 389 -75 22 -11 56 -31 75 -45 28 -20 44
-24 81 -21 67 7 186 70 264 140 17 14 46 40 65 58 19 17 53 42 75 55 22 14 51
39 65 57 32 42 99 108 109 108 15 0 157 147 206 214 28 37 89 109 137 159 l87
92 -32 15 c-37 17 -92 70 -74 70 7 0 31 -13 54 -30 37 -27 65 -31 44 -6 -11
13 11 65 100 236 52 100 69 156 69 226 l0 74 46 0 45 0 -3 320 c-2 256 -6 322
-17 329 -8 5 -15 35 -18 75 -3 36 -10 66 -14 66 -5 0 -9 47 -9 105 0 58 4 105
8 105 5 0 17 27 28 60 10 33 22 60 26 60 5 0 8 11 8 24 0 13 7 29 15 36 8 7
15 19 15 26 0 8 5 14 10 14 6 0 10 11 10 25 0 14 5 25 10 25 6 0 10 8 10 19 0
10 7 24 15 31 8 7 15 25 15 41 0 16 5 29 10 29 6 0 10 9 10 20 0 11 5 20 10
20 6 0 10 7 10 15 0 11 11 15 40 15 38 0 40 2 40 29 0 21 6 32 20 36 11 3 20
11 20 16 0 5 27 9 60 9 33 0 60 -4 60 -10 0 -5 19 -10 43 -10 59 0 116 -18
141 -44 11 -12 40 -30 63 -41 24 -11 43 -23 43 -27 0 -12 138 -9 145 2 3 6 19
10 36 10 16 0 29 4 29 9 0 5 23 12 51 16 l51 7 -4 60 -3 59 40 -6 c22 -4 47
-15 56 -25 10 -12 37 -20 80 -25 35 -4 92 -13 126 -21 85 -19 114 -6 186 82
30 38 71 85 92 104 50 48 65 80 65 142 0 81 33 174 99 284 10 17 22 49 25 71
l7 40 -58 -2 c-155 -6 -212 -28 -234 -90 -7 -19 -17 -35 -21 -35 -4 0 -8 -14
-8 -31 0 -37 -29 -129 -41 -129 -5 0 -8 -4 -7 -9 2 -5 -10 -32 -27 -60 l-29
-51 -63 0 c-66 0 -139 22 -129 39 4 5 2 12 -4 16 -6 3 -20 25 -31 47 -11 22
-29 50 -40 61 -10 12 -19 32 -19 45 0 13 -6 38 -14 55 -8 18 -22 62 -31 99
-10 37 -26 81 -36 98 -18 28 -22 30 -81 30 -113 0 -106 9 -110 -153 -3 -125
-6 -147 -26 -186 -37 -70 -43 -73 -120 -67 -37 3 -117 9 -179 13 -62 5 -116
13 -121 18 -27 30 -71 186 -77 270 -7 116 -24 223 -38 255 -7 14 -25 40 -41
58 -24 26 -37 32 -71 32 -49 0 -72 -21 -100 -90 -15 -36 -20 -82 -24 -242 -4
-108 -9 -199 -12 -202 -25 -25 -79 67 -79 135 0 21 -6 56 -14 76 -23 66 -34
107 -41 156 -3 26 -22 76 -41 111 -19 35 -34 73 -34 85 0 11 -4 21 -9 21 -9 0
-25 54 -40 137 -4 24 -15 51 -24 61 -20 22 -87 45 -87 30 0 -6 -11 -8 -24 -4
-28 7 -29 3 -46 -132 -5 -46 -12 -87 -15 -91 -2 -5 0 -73 6 -152 9 -119 16
-157 40 -217 23 -58 29 -91 31 -165 l3 -92 -37 2 c-34 2 -38 0 -38 -22 0 -14
-4 -25 -9 -25 -4 0 -14 -27 -21 -60 -7 -33 -17 -60 -21 -60 -5 0 -9 -7 -9 -15
0 -8 -8 -29 -19 -48 -10 -18 -22 -47 -25 -64 -4 -17 -16 -48 -27 -69 -10 -21
-19 -46 -19 -55 0 -10 -7 -24 -15 -33 -32 -31 -75 -128 -75 -167 0 -21 -4 -39
-10 -39 -5 0 -13 -12 -16 -27 -4 -16 -13 -35 -20 -43 -7 -8 -26 -29 -41 -47
-15 -17 -38 -42 -50 -56 -13 -14 -23 -32 -23 -41 0 -9 -4 -16 -10 -16 -5 0
-10 -10 -10 -22 0 -13 -7 -32 -15 -42 -8 -11 -15 -26 -15 -34 0 -8 -12 -39
-27 -69 -14 -30 -28 -77 -31 -104 -5 -50 16 -159 44 -232 8 -20 14 -44 14 -52
0 -21 -20 -19 -21 3 0 13 -2 14 -6 2 -3 -8 -12 -21 -21 -27 -14 -12 -14 -13 0
-13 9 0 19 6 21 13 3 6 5 -8 5 -33 0 -25 -3 -35 -5 -22 -5 26 -4 26 -40 10
-48 -22 -68 -48 -36 -48 11 0 2 -13 -27 -40 -24 -22 -53 -40 -65 -40 -11 0
-26 -5 -32 -11 -20 -20 -43 -2 -44 33 l-1 33 -11 -27 c-6 -16 -14 -28 -19 -28
-4 0 -8 -15 -8 -34 0 -66 -12 -126 -26 -126 -10 0 -14 -15 -14 -55 0 -45 -4
-58 -25 -80 -14 -14 -32 -25 -40 -25 -11 0 -15 -12 -15 -40 0 -22 -4 -40 -10
-40 -5 0 -10 -17 -10 -38 0 -21 -7 -48 -16 -60 -12 -17 -13 -26 -5 -36 8 -9 8
-22 2 -39 -9 -24 -13 -25 -65 -20 -55 6 -56 5 -56 -21 0 -14 -4 -26 -9 -26 -5
0 -12 -21 -16 -47 -6 -46 -40 -98 -56 -87 -15 9 -31 -38 -36 -112 -4 -43 -10
-74 -17 -75 -109 -6 -109 -6 -120 34 -16 57 -31 50 -34 -18 -2 -42 -8 -64 -20
-73 -14 -10 -14 -16 -4 -32 22 -37 15 -67 -19 -79 -40 -14 -62 -14 -54 -1 8
14 -8 13 -22 -1 -17 -17 -73 -1 -73 21 0 19 -14 55 -53 137 l-20 42 26 72 c24
68 26 106 5 93 -5 -3 -21 6 -35 20 -35 35 -55 34 -48 -1 15 -72 25 -113 40
-175 10 -38 15 -74 12 -82 -3 -8 -2 -38 2 -65 4 -28 4 -51 0 -51 -16 0 -10
-28 7 -34 13 -5 15 -20 13 -74 -1 -47 3 -79 16 -107 16 -36 16 -50 6 -132 -6
-50 -11 -114 -11 -142 0 -27 -5 -72 -12 -100 l-11 -51 -49 0 c-36 0 -48 -4
-48 -15 0 -20 -24 -19 -40 0 -7 9 -20 15 -29 14 -40 -4 -92 2 -87 9 7 12 -85
-2 -111 -16 -12 -7 -33 -12 -47 -12 -15 0 -49 -11 -77 -25 -59 -28 -75 -23
-109 37 -26 47 -48 125 -86 313 -2 11 -8 27 -14 35 -9 13 -12 13 -23 0 -6 -9
-32 -25 -57 -37 -25 -11 -54 -30 -64 -42 -11 -12 -27 -21 -38 -21 -10 0 -18
-7 -18 -17 0 -14 -2 -15 -9 -4 -5 7 -14 10 -20 6 -13 -7 -9 19 16 95 22 67
121 254 158 297 17 21 48 66 69 101 48 80 110 148 216 236 47 38 87 73 90 76
3 3 25 21 50 40 25 19 54 43 65 53 11 10 42 32 70 50 27 19 95 63 150 100 56
37 105 67 110 67 23 0 84 63 159 163 46 62 102 130 125 152 23 22 65 64 94 93
50 52 54 54 95 49 24 -2 64 -16 90 -29 l48 -25 67 53 c70 55 117 104 117 123
0 6 5 11 10 11 6 0 10 5 10 12 0 13 -69 -51 -70 -64 0 -19 -38 -49 -67 -54
-51 -10 -155 5 -182 25 -32 24 -24 42 51 123 35 37 77 84 93 104 17 20 60 68
98 106 37 38 67 74 67 80 0 6 10 25 23 42 32 44 55 103 61 162 4 27 15 68 26
89 11 22 20 50 20 62 0 13 4 23 10 23 5 0 12 16 16 35 3 19 10 35 15 35 5 0 9
29 9 64 0 89 -17 109 -82 95 -26 -6 -52 -17 -59 -25 -6 -8 -29 -14 -50 -14
-33 0 -41 4 -49 25 -7 17 -17 25 -34 25 -42 0 -68 -16 -136 -79 -45 -42 -83
-68 -122 -82 -32 -12 -58 -25 -58 -28 0 -4 -9 -16 -19 -28 -10 -11 -26 -33
-35 -49 -56 -99 -80 -135 -125 -183 -18 -20 -45 -56 -59 -81 -28 -49 -61 -90
-73 -90 -4 0 -14 12 -21 28 -10 20 -22 28 -46 30 l-34 3 26 -38 c30 -44 32
-69 10 -121 -8 -20 -27 -72 -41 -114 -31 -94 -80 -146 -164 -173 -30 -10 -68
-28 -86 -41 -17 -13 -38 -24 -47 -24 -8 0 -17 -4 -21 -10 -3 -5 -33 -19 -65
-31 -33 -12 -60 -25 -60 -28 0 -8 -52 -31 -109 -50 -44 -14 -201 -15 -201 -1
0 6 9 28 19 48 11 21 22 56 26 77 4 22 17 74 30 115 41 133 48 164 52 233 6
90 -1 114 -40 137 -34 21 -82 26 -92 10 -3 -5 -16 -10 -28 -10 -12 0 -41 -9
-63 -19 -37 -17 -43 -24 -49 -60 -4 -22 -11 -43 -15 -46 -5 -3 -16 -27 -25
-54 -8 -26 -26 -57 -39 -68 -12 -11 -28 -42 -35 -69 -40 -161 -75 -229 -149
-292 -56 -49 -101 -111 -141 -197 -69 -147 -65 -132 -66 -275 -1 -82 -6 -147
-14 -165 l-12 -30 -19 25 c-11 14 -20 30 -20 35 0 6 -11 33 -25 60 -13 28 -25
54 -25 60 0 5 -15 41 -34 80 -19 38 -51 111 -71 160 -20 50 -45 108 -55 130
-9 22 -32 76 -50 120 -54 134 -46 117 -107 255 -16 36 -42 97 -57 135 -16 39
-38 90 -49 115 -11 25 -26 59 -33 75 -7 17 -27 60 -43 97 -17 37 -31 69 -31
72 0 2 -34 74 -75 161 -41 86 -75 165 -75 176 0 10 -4 19 -8 19 -5 0 -19 34
-31 75 -21 67 -33 168 -31 264 1 66 -30 164 -70 216 -20 28 -43 61 -50 73 -14
28 -45 66 -82 103 l-28 27 36 7 c20 3 143 4 273 1 249 -5 233 0 -103 28 -104
9 -195 21 -202 27 -8 6 -43 14 -80 17 -42 3 -68 10 -71 18 -9 23 26 94 73 149
24 29 44 54 44 57 0 3 15 22 33 42 18 19 50 64 70 98 l37 63 0 135 c0 144 -24
361 -66 585 -41 218 -25 181 -156 364 -26 36 -55 77 -64 91 -15 22 -24 25 -84
26 -65 0 -140 24 -140 44 0 4 -12 13 -27 18 -26 9 -23 10 29 17 31 4 82 3 112
-2 l55 -10 -15 28 c-7 15 -18 31 -24 34 -6 4 -29 32 -52 63 -23 31 -49 64 -56
72 -8 8 -25 35 -36 60 -12 25 -34 66 -49 91 -15 25 -36 72 -47 104 -28 82 -64
140 -108 172 -67 50 -79 70 -87 142 -7 73 -22 131 -35 131 -4 0 -13 15 -20 33
-64 170 -152 288 -309 414 -52 41 -65 45 -121 36z m632 -1313 c21 -6 43 -20
49 -31 6 -11 17 -18 24 -15 9 3 12 0 9 -8 -3 -8 -18 -16 -33 -19 -16 -3 -77
-39 -135 -79 -59 -40 -134 -89 -166 -108 -32 -19 -73 -44 -91 -55 -82 -50
-125 -75 -139 -80 -62 -26 -115 -51 -118 -57 -3 -5 -50 -29 -141 -72 -18 -8
-25 -8 -28 0 -2 6 -10 19 -17 29 -13 18 -15 18 -57 -3 -24 -12 -41 -22 -37
-22 4 0 0 -9 -9 -20 -15 -17 -43 -28 -43 -16 0 15 14 36 24 36 6 0 19 8 27 18
52 58 129 106 350 219 193 98 357 195 433 255 55 43 49 41 98 28z m99 -180
c10 0 19 -4 19 -10 0 -5 -8 -10 -17 -10 -15 0 -16 -2 -3 -10 8 -5 23 -10 33
-10 17 0 247 -223 247 -239 0 -8 -58 -48 -85 -60 -10 -4 -122 -75 -175 -110
-14 -10 -45 -27 -70 -40 -25 -13 -47 -26 -50 -30 -13 -20 -158 -110 -180 -113
-20 -2 -26 2 -28 20 -2 12 -9 22 -15 22 -7 0 -25 7 -40 15 -21 11 -34 12 -48
4 -11 -6 -29 -9 -39 -7 -17 3 -12 11 29 56 27 28 57 52 65 52 9 0 16 5 16 10
0 6 6 10 13 10 7 0 26 16 41 35 19 23 37 35 53 35 33 0 77 27 89 53 7 18 18
22 62 23 59 1 70 7 53 28 -10 11 -4 18 32 35 24 12 51 21 59 21 18 0 48 26 48
40 0 23 -53 68 -87 75 -21 4 -43 15 -51 26 -14 20 -72 27 -72 9 0 -5 -12 -10
-26 -10 -31 0 -28 23 4 28 12 2 22 8 22 13 0 16 27 39 44 39 8 0 18 5 22 12 6
9 9 9 12 0 2 -7 12 -12 23 -12z m-289 -202 c4 -31 47 -34 69 -6 17 22 39 17
39 -8 0 -8 -10 -29 -22 -47 -13 -18 -24 -34 -25 -36 -1 -2 -14 -3 -29 -3 -20
0 -29 -8 -40 -33 -9 -23 -22 -34 -43 -38 -17 -4 -32 -14 -36 -27 -9 -29 -85
-29 -103 0 -10 17 -16 19 -33 9 -38 -20 -62 5 -39 41 8 12 13 13 30 2 17 -11
20 -10 20 7 0 12 8 21 22 23 12 2 23 9 26 15 6 22 -26 26 -62 9 -19 -9 -37
-16 -42 -16 -4 0 -14 -7 -23 -15 -35 -33 -79 -65 -90 -65 -20 0 -12 18 12 26
12 4 36 21 52 38 44 44 94 78 106 71 5 -4 24 2 42 13 25 14 38 16 55 9 32 -14
27 -27 -10 -28 -18 0 -27 -3 -20 -6 6 -2 12 -11 12 -19 0 -18 4 -18 48 5 20
11 43 30 51 42 12 20 11 24 -3 34 -23 17 -20 25 8 25 18 0 25 -6 28 -22z
m-676 -198 c34 -13 22 -28 -29 -34 -41 -6 -52 14 -19 33 21 13 16 13 48 1z
m284 -350 c0 -6 8 -10 17 -8 13 2 18 -4 18 -24 1 -16 -3 -28 -8 -28 -4 0 -6
-4 -2 -9 3 -5 1 -12 -5 -16 -5 -3 -10 3 -10 14 0 12 -4 21 -10 21 -5 0 -10 -7
-10 -15 0 -22 -7 -19 -39 17 -16 18 -27 38 -24 45 6 15 73 18 73 3z m495 -5
c11 -2 23 -4 28 -4 4 -1 7 -9 7 -19 0 -12 -12 -22 -34 -29 -35 -11 -53 -4 -92
31 -15 14 24 36 51 29 11 -2 29 -6 40 -8z m105 -9 c0 -3 -4 -8 -10 -11 -5 -3
-10 -1 -10 4 0 6 5 11 10 11 6 0 10 -2 10 -4z m87 -373 c-3 -3 -11 -2 -17 2
-9 6 -9 10 1 16 14 8 27 -7 16 -18z m-187 -3 c0 -5 -24 -10 -52 -10 -38 0 -49
3 -38 10 20 13 90 13 90 0z m4216 -2197 c10 -20 26 -45 34 -55 32 -40 134
-232 190 -361 14 -31 28 -57 33 -57 4 0 7 -6 7 -13 0 -8 14 -43 32 -78 51
-104 52 -107 31 -81 -11 13 -48 81 -84 150 -35 70 -69 133 -76 140 -6 6 -21
32 -33 56 -18 35 -26 43 -44 38 -20 -5 -20 -4 -3 15 18 20 23 53 8 53 -17 0
-61 49 -61 68 0 11 -12 27 -26 37 -20 13 -24 22 -20 40 4 15 1 25 -9 29 -16 6
-21 56 -7 56 5 0 17 -17 28 -37z m44 -277 c0 -3 -4 -8 -10 -11 -5 -3 -10 -1
-10 4 0 6 5 11 10 11 6 0 10 -2 10 -4z m-290 -46 c0 -5 -4 -10 -10 -10 -5 0
-10 5 -10 10 0 6 5 10 10 10 6 0 10 -4 10 -10z m645 -444 c39 -77 42 -84 19
-62 -20 21 -74 126 -74 146 0 13 1 13 11 0 5 -8 25 -46 44 -84z m115 -169 c0
-6 -11 0 -25 13 -14 13 -25 31 -25 39 0 11 8 7 25 -13 14 -16 25 -34 25 -39z
m-3260 -417 c0 -5 -4 -10 -10 -10 -5 0 -10 5 -10 10 0 6 5 10 10 10 6 0 10 -4
10 -10z m1070 -975 c0 -8 5 -15 10 -15 6 0 10 -8 10 -17 0 -15 -4 -13 -20 7
-22 28 -25 40 -10 40 6 0 10 -7 10 -15z m740 -200 c0 -11 -11 -15 -40 -15 -29
0 -40 4 -40 15 0 11 11 15 40 15 29 0 40 -4 40 -15z m325 -255 c10 -11 16 -23
12 -26 -8 -8 -44 13 -51 31 -8 22 18 19 39 -5z m110 -188 c-3 -4 -11 1 -16 10
-5 9 -16 24 -24 32 -8 8 -15 23 -15 32 0 12 11 3 31 -24 17 -24 28 -46 24 -50z
m153 -368 c10 -7 18 -44 24 -115 5 -57 17 -120 26 -139 20 -42 20 -129 1 -141
-19 -11 -22 -6 -52 96 -30 99 -32 109 -17 100 6 -3 15 6 20 21 7 18 7 29 1 33
-5 4 -11 32 -13 64 -2 31 -6 57 -10 57 -5 0 -8 15 -7 33 0 17 3 25 6 17 4 -8
13 -20 21 -26z m458 -853 c-4 -26 -2 -31 6 -23 7 7 20 12 30 12 14 0 18 -8 18
-33 0 -34 20 -87 33 -87 11 0 9 -38 -4 -61 -8 -16 -7 -25 4 -37 8 -9 12 -23
10 -30 -3 -8 0 -25 7 -38 14 -25 13 -28 -25 -94 l-15 -25 0 33 c0 21 -5 32
-15 32 -9 0 -16 14 -20 38 -3 20 -11 57 -16 81 -5 24 -7 46 -5 49 3 3 2 10 -3
16 -22 29 -39 116 -37 201 2 113 17 145 29 60 4 -33 6 -75 3 -94z m54 114 c0
-8 -2 -15 -4 -15 -2 0 -6 7 -10 15 -3 8 -1 15 4 15 6 0 10 -7 10 -15z m75
-195 c3 -5 1 -10 -4 -10 -6 0 -11 5 -11 10 0 6 2 10 4 10 3 0 8 -4 11 -10z
m135 -319 c0 -6 -4 -13 -10 -16 -5 -3 -10 1 -10 9 0 9 5 16 10 16 6 0 10 -4
10 -9z m-508 -556 c4 -20 2 -23 -8 -14 -7 6 -10 17 -7 25 7 20 10 18 15 -11z
m293 2 c20 -11 24 -16 13 -17 -14 0 -18 -9 -18 -40 0 -22 -4 -40 -9 -40 -5 0
-12 -18 -16 -40 -4 -22 -11 -40 -16 -40 -5 0 -9 -7 -9 -15 0 -22 -28 -18 -35
5 -4 12 -1 28 6 36 9 11 9 18 1 26 -7 7 -12 21 -12 32 0 11 -5 34 -12 52 -17
47 -6 64 39 60 21 -2 52 -10 68 -19z"/>
<path d="M2803 10693 c-7 -2 -13 -12 -12 -21 0 -11 2 -12 6 -4 2 6 11 12 18
12 8 0 17 5 20 10 6 10 -11 12 -32 3z"/>
<path d="M2756 10655 c-3 -8 -1 -15 4 -15 6 0 10 7 10 15 0 8 -2 15 -4 15 -2
0 -6 -7 -10 -15z"/>
<path d="M2705 10620 c-10 -11 -24 -20 -32 -20 -7 0 -13 -4 -13 -10 0 -5 4
-10 10 -10 14 0 77 59 64 60 -6 0 -19 -9 -29 -20z"/>
<path d="M2550 10536 c-25 -12 -47 -31 -49 -42 -3 -18 -2 -18 15 -3 11 9 29
20 41 23 11 4 24 14 27 22 3 8 10 13 15 9 5 -3 12 -1 16 5 10 17 -17 11 -65
-14z"/>
<path d="M2445 10477 c-22 -12 -42 -23 -44 -24 -2 -2 -2 -5 1 -8 9 -10 88 29
88 42 0 16 3 17 -45 -10z"/>
<path d="M2376 10443 c-11 -11 -6 -23 9 -23 8 0 15 4 15 9 0 13 -16 22 -24 14z"/>
<path d="M2325 10408 c-18 -19 -18 -20 -2 -15 10 4 23 7 28 7 5 0 9 7 9 15 0
20 -11 18 -35 -7z"/>
<path d="M2280 10385 c-7 -8 -19 -15 -26 -15 -8 0 -14 -4 -14 -10 0 -13 17
-13 25 0 4 6 10 8 15 5 4 -3 11 2 14 11 9 23 1 28 -14 9z"/>
<path d="M2217 10354 c-4 -4 -7 -14 -7 -23 0 -11 3 -12 11 -4 6 6 10 16 7 23
-2 6 -7 8 -11 4z"/>
<path d="M2175 10320 c-3 -5 1 -10 9 -10 9 0 16 5 16 10 0 6 -4 10 -9 10 -6 0
-13 -4 -16 -10z"/>
<path d="M2116 10281 c-4 -5 -2 -12 3 -15 5 -4 12 -2 15 3 4 5 2 12 -3 15 -5
4 -12 2 -15 -3z"/>
<path d="M3124 10665 c17 -13 76 -8 76 7 0 5 -21 8 -46 7 -37 -2 -43 -5 -30
-14z"/>
<path d="M3215 10660 c-8 -13 -1 -24 14 -19 6 3 7 10 2 18 -6 10 -10 10 -16 1z"/>
<path d="M4418 8943 c6 -2 18 -2 25 0 6 3 1 5 -13 5 -14 0 -19 -2 -12 -5z"/>
<path d="M4658 8943 c12 -2 30 -2 40 0 9 3 -1 5 -23 4 -22 0 -30 -2 -17 -4z"/>
<path d="M5040 8895 c0 -2 10 -10 23 -16 20 -11 21 -11 8 4 -13 16 -31 23 -31
12z"/>
<path d="M5108 8823 c29 -56 32 -64 32 -83 0 -11 6 -20 14 -20 8 0 22 -10 31
-22 10 -13 14 -16 11 -8 -3 8 -9 23 -12 33 -4 9 -10 17 -14 17 -4 0 -15 17
-23 38 -8 21 -23 45 -33 53 -16 13 -16 12 -6 -8z"/>
<path d="M5206 8657 c3 -10 9 -15 12 -12 3 3 0 11 -7 18 -10 9 -11 8 -5 -6z"/>
<path d="M5224 8585 c3 -34 10 -53 21 -60 10 -5 31 -22 46 -37 37 -35 36 -30
-1 25 -16 25 -30 50 -30 56 0 6 -4 11 -9 11 -5 0 -14 12 -20 28 -10 24 -11 21
-7 -23z"/>
<path d="M4 8455 c0 -49 1 -71 3 -48 2 23 2 64 0 90 -2 26 -3 8 -3 -42z"/>
<path d="M2318 8375 c2 -15 11 -25 22 -25 10 0 23 -7 30 -15 7 -8 16 -15 21
-15 5 0 9 7 9 15 0 8 -6 15 -14 15 -8 0 -23 11 -34 25 -11 14 -24 25 -30 25
-5 0 -7 -11 -4 -25z"/>
<path d="M5401 8360 c13 -19 27 -36 32 -38 4 -2 7 -9 7 -15 1 -15 70 -93 70
-79 0 5 -6 15 -14 21 -8 7 -17 23 -20 36 -6 23 -26 47 -76 90 l-23 20 24 -35z"/>
<path d="M2460 8310 c0 -5 5 -10 11 -10 5 0 7 5 4 10 -3 6 -8 10 -11 10 -2 0
-4 -4 -4 -10z"/>
<path d="M2385 8290 c3 -5 8 -10 11 -10 2 0 4 5 4 10 0 6 -5 10 -11 10 -5 0
-7 -4 -4 -10z"/>
<path d="M2493 8263 c9 -11 15 -22 12 -25 -3 -3 8 -8 25 -10 26 -4 30 -2 30
19 0 15 -6 23 -17 23 -10 0 -29 3 -43 7 -24 6 -24 6 -7 -14z"/>
<path d="M2590 8259 c0 -12 5 -19 12 -17 18 6 20 25 3 31 -10 5 -15 0 -15 -14z"/>
<path d="M2640 8201 c0 -12 6 -21 15 -21 8 0 15 4 15 9 0 5 -7 14 -15 21 -13
10 -15 9 -15 -9z"/>
<path d="M5541 8185 c-1 -5 8 -34 19 -63 11 -29 20 -73 20 -99 0 -33 8 -59 28
-92 16 -25 31 -53 34 -61 6 -15 128 -94 135 -87 4 5 -45 68 -97 125 -30 33
-40 52 -40 78 0 19 -4 42 -9 52 -5 9 -16 33 -25 53 -9 20 -23 42 -32 50 -9 7
-20 22 -24 34 -5 11 -9 16 -9 10z"/>
<path d="M2580 8152 c0 -16 39 -44 50 -37 8 5 5 13 -9 26 -21 20 -41 25 -41
11z"/>
<path d="M2721 8067 c-12 -15 -5 -27 16 -27 7 0 13 9 13 20 0 23 -13 26 -29 7z"/>
<path d="M1233 7906 c-13 -6 -23 -20 -23 -32 0 -11 -13 -33 -30 -49 -16 -16
-30 -33 -30 -39 0 -10 45 37 87 92 29 37 28 43 -4 28z"/>
<path d="M2920 7911 c0 -5 -3 -16 -6 -25 -4 -11 -1 -16 10 -16 10 0 16 9 16
25 0 14 -4 25 -10 25 -5 0 -10 -4 -10 -9z"/>
<path d="M2250 7584 c-141 -36 -249 -56 -297 -54 -29 0 -53 -3 -53 -8 0 -14
48 -21 205 -28 154 -7 151 -8 203 60 38 50 32 53 -58 30z"/>
<path d="M6872 7403 c-8 -24 -8 -39 -2 -41 6 -2 10 -12 10 -21 0 -10 11 -23
25 -29 25 -11 25 -11 21 21 -11 77 -19 107 -31 107 -6 0 -17 -17 -23 -37z"/>
<path d="M6760 7355 c-7 -9 -14 -39 -16 -68 -4 -46 -2 -50 10 -34 7 9 12 31
10 48 -2 17 1 39 6 50 13 23 7 25 -10 4z"/>
<path d="M703 7336 c-13 -7 -31 -20 -41 -29 -10 -10 -28 -17 -40 -17 -12 0
-22 -4 -22 -8 0 -5 -25 -34 -55 -65 -50 -51 -55 -60 -61 -114 -7 -58 -1 -64
20 -21 6 13 21 27 32 32 12 5 33 28 47 50 14 23 49 65 77 95 43 45 79 94 68
90 -2 -1 -13 -7 -25 -13z"/>
<path d="M2112 7158 c-21 -21 -13 -32 60 -78 97 -61 222 -143 228 -150 7 -8
41 -28 70 -42 14 -7 30 -17 36 -23 6 -5 28 -19 50 -30 21 -11 41 -23 44 -26
19 -21 42 -16 72 16 17 19 39 35 50 35 30 0 21 15 -24 40 -80 44 -223 116
-258 129 -19 8 -62 26 -95 41 -33 15 -88 40 -122 55 -35 15 -63 32 -63 36 0
13 -34 11 -48 -3z"/>
<path d="M550 7050 c0 -5 -7 -10 -15 -10 -27 0 -16 -41 21 -79 35 -35 76 -102
128 -207 14 -28 40 -69 58 -92 18 -22 56 -68 83 -103 69 -87 92 -106 139 -118
63 -15 260 -40 364 -46 52 -3 98 -7 103 -11 5 -3 9 0 9 5 0 6 -4 11 -10 11 -5
0 -7 7 -4 15 4 10 -6 20 -30 32 -20 9 -36 20 -36 25 0 4 -8 8 -18 8 -10 0 -22
4 -27 8 -13 11 -168 72 -183 72 -7 0 -12 4 -12 8 0 4 -17 14 -37 21 -21 8 -50
22 -65 32 -14 11 -32 19 -40 19 -8 0 -45 28 -83 62 -83 73 -78 67 -138 143
-26 33 -56 69 -65 80 -10 11 -33 39 -51 63 -33 42 -91 82 -91 62z"/>
<path d="M988 6884 c-45 -25 -36 -50 20 -58 64 -8 188 -57 272 -108 53 -32
154 -72 254 -102 75 -22 152 -54 218 -90 56 -31 106 -56 111 -56 14 0 237
-110 270 -132 15 -11 27 -15 27 -10 0 16 -40 61 -60 67 -11 4 -20 13 -20 21 0
8 -6 14 -12 14 -15 1 -68 45 -68 57 -1 12 -58 73 -69 73 -5 0 -11 6 -14 13 -2
6 -7 9 -11 5 -7 -6 15 -36 61 -83 12 -13 19 -26 15 -29 -3 -4 0 -11 8 -16 29
-18 -24 -11 -60 8 -67 35 -135 75 -165 96 -39 27 -60 40 -115 68 -25 13 -47
26 -50 29 -3 3 -27 14 -55 24 -27 10 -57 24 -66 32 -8 7 -21 13 -27 13 -7 0
-12 4 -12 8 0 4 -13 16 -30 25 -16 10 -35 23 -42 30 -7 7 -29 21 -48 31 -19
11 -37 23 -40 26 -12 16 -135 50 -197 55 -49 3 -76 0 -95 -11z"/>
<path d="M491 6813 c-1 -17 4 -35 9 -38 11 -7 11 9 0 45 -8 24 -8 24 -9 -7z"/>
<path d="M510 6741 c0 -11 4 -22 9 -25 4 -3 6 6 3 19 -5 30 -12 33 -12 6z"/>
<path d="M6480 6544 c0 -14 3 -14 15 -4 8 7 15 14 15 16 0 2 -7 4 -15 4 -8 0
-15 -7 -15 -16z"/>
<path d="M571 6473 c-1 -45 3 -84 8 -87 4 -3 11 -37 13 -76 3 -39 11 -77 17
-83 6 -6 11 -26 11 -44 0 -18 5 -33 10 -33 6 0 10 -45 10 -115 0 -70 4 -115
10 -115 6 0 10 -8 10 -18 0 -11 9 -27 20 -37 19 -17 19 -17 7 16 -7 19 -14 36
-17 39 -3 3 -6 41 -7 85 l-1 80 12 -50 12 -50 18 37 c17 35 17 40 -3 130 -29
134 -45 188 -65 233 -31 67 -36 78 -50 125 l-14 45 -1 -82z"/>
<path d="M7761 6333 c-10 -26 -10 -27 4 -9 8 11 15 23 15 28 0 15 -7 8 -19
-19z"/>
<path d="M7730 6279 c0 -5 5 -7 10 -4 6 3 10 8 10 11 0 2 -4 4 -10 4 -5 0 -10
-5 -10 -11z"/>
<path d="M2436 6022 c-5 -15 -17 -19 -52 -20 -57 0 -99 -17 -118 -47 -15 -22
-14 -23 17 -28 222 -39 260 -51 304 -99 29 -31 53 -89 53 -130 0 -28 6 -36 38
-50 59 -28 89 -63 108 -125 23 -77 34 -87 34 -32 0 27 -10 63 -25 93 -22 43
-25 62 -25 151 l0 102 -37 7 c-59 9 -93 7 -93 -6 0 -17 -79 63 -80 80 0 7 -5
10 -10 7 -6 -3 -13 2 -17 12 -4 10 -9 20 -13 23 -3 3 -19 22 -34 43 -32 42
-42 45 -50 19z"/>
<path d="M704 5815 c-3 -14 -4 -42 0 -62 13 -88 19 -113 27 -119 5 -3 9 -16 9
-29 0 -14 9 -40 20 -60 11 -20 20 -49 20 -65 0 -16 5 -32 10 -35 6 -3 10 -15
10 -27 0 -11 14 -36 30 -55 22 -25 30 -44 30 -73 0 -21 5 -42 10 -45 6 -3 10
-33 10 -65 0 -32 5 -62 10 -65 6 -3 10 -17 10 -30 0 -14 14 -53 30 -87 17 -34
30 -69 30 -78 0 -9 4 -20 9 -25 5 -6 11 -21 13 -35 2 -15 13 -30 29 -37 22
-11 28 -22 33 -67 6 -42 12 -55 27 -59 11 -3 19 -14 19 -25 0 -12 5 -24 10
-27 6 -3 10 -16 10 -28 0 -14 33 -54 90 -112 49 -49 90 -96 90 -102 0 -7 6
-13 13 -13 7 0 21 -17 32 -37 11 -21 27 -49 37 -62 13 -18 18 -42 18 -96 0
-51 4 -76 15 -85 19 -16 65 -109 65 -132 0 -10 5 -18 10 -18 6 0 10 -18 10
-40 0 -22 4 -40 10 -40 5 0 18 -19 29 -43 11 -23 31 -55 45 -70 14 -15 26 -35
26 -43 0 -7 6 -14 13 -14 14 0 47 -46 82 -114 11 -21 30 -42 43 -47 14 -5 22
-17 22 -31 0 -15 18 -41 50 -71 28 -26 50 -52 50 -57 0 -5 11 -22 25 -37 64
-71 75 -89 75 -120 0 -18 4 -33 10 -33 5 0 13 -18 16 -40 4 -22 10 -40 15 -40
5 0 9 -13 9 -29 0 -17 5 -33 10 -36 6 -3 10 -16 10 -29 0 -12 3 -26 7 -30 10
-9 33 -78 33 -98 0 -10 5 -18 10 -18 6 0 10 -11 10 -24 0 -14 5 -28 10 -31 6
-3 10 -21 10 -40 0 -19 5 -37 10 -40 6 -3 10 -22 10 -41 0 -19 5 -34 10 -34 6
0 10 -8 10 -17 0 -19 18 -79 31 -105 5 -10 9 -40 9 -68 0 -27 5 -50 10 -50 6
0 10 -9 10 -20 0 -11 9 -35 20 -55 11 -20 20 -53 20 -75 0 -22 5 -40 10 -40 6
0 10 -22 10 -50 0 -27 5 -50 10 -50 6 0 10 -18 10 -39 0 -22 5 -43 10 -46 6
-3 10 -22 10 -41 0 -19 5 -34 10 -34 6 0 10 -28 10 -65 l0 -65 30 0 30 0 0
-925 0 -925 530 0 530 0 -1 43 c-1 23 -3 34 -6 25 -8 -33 -20 -18 -30 37 -9
50 -8 55 9 55 10 0 18 4 18 9 0 5 8 8 17 7 10 0 19 7 21 17 4 22 -30 23 -48 2
-12 -14 -15 -14 -31 1 -11 10 -19 23 -19 31 0 7 -4 13 -10 13 -5 0 -10 9 -10
20 0 11 -4 20 -9 20 -20 0 -22 35 -3 50 18 14 42 51 42 64 0 3 -7 6 -15 6 -22
0 -19 7 17 39 33 29 32 53 -2 44 -18 -5 -20 0 -20 38 0 29 -3 39 -9 30 -15
-24 -31 -1 -31 45 0 24 -4 44 -10 44 -5 0 -10 6 -10 14 0 7 -6 19 -13 25 -8 6
-20 36 -27 66 -7 30 -19 55 -25 55 -7 0 -18 19 -25 43 -7 23 -15 36 -17 29 -5
-13 -61 -72 -69 -72 -3 0 -12 -7 -20 -15 -12 -11 -19 -12 -33 -4 -15 10 -16
20 -10 67 6 41 4 60 -7 77 -8 12 -12 30 -8 39 3 9 1 16 -5 16 -6 0 -11 -4 -11
-10 0 -15 -26 -12 -40 5 -6 8 -15 14 -18 13 -4 -1 -17 3 -29 10 -25 14 -30 38
-10 45 9 3 7 10 -5 23 -12 12 -18 14 -18 6 0 -7 -5 -10 -10 -7 -7 4 -8 31 -4
71 6 55 5 64 -10 64 -9 0 -16 -6 -16 -13 0 -8 -9 -22 -20 -32 -19 -17 -20 -17
-30 9 -13 34 -13 36 1 36 16 0 48 42 49 63 0 11 8 17 25 17 23 0 25 4 25 40 0
27 4 40 14 40 7 0 16 9 19 21 3 12 10 18 15 15 6 -3 22 -2 37 4 19 7 25 16 23
32 -2 19 5 27 40 42 23 11 42 25 42 32 0 8 6 11 15 8 14 -6 46 21 87 74 9 11
20 37 24 56 3 20 10 36 15 36 5 0 9 7 9 15 0 8 5 15 10 15 6 0 10 17 10 38 0
20 4 43 9 51 12 18 31 5 32 -22 0 -14 2 -16 6 -7 11 33 29 66 51 90 12 14 25
33 28 43 3 9 12 17 20 17 8 0 12 5 9 10 -3 6 0 10 7 10 17 0 68 44 68 58 0 6
9 14 20 17 11 3 20 13 20 21 0 17 110 135 120 129 4 -2 15 4 25 15 10 11 36
29 59 40 23 11 52 29 64 40 11 11 29 20 38 20 9 0 18 9 21 20 5 20 13 24 46
21 9 -1 17 4 17 13 0 11 16 20 46 28 26 7 49 18 51 25 3 7 18 13 33 13 16 0
30 7 34 15 3 8 15 15 26 15 11 0 20 7 20 15 0 11 11 15 40 15 22 0 40 5 40 10
0 6 6 10 14 10 8 0 16 6 19 13 3 9 9 9 26 -1 18 -10 21 -10 21 3 0 8 18 22 40
31 22 9 40 20 40 25 0 5 10 9 23 9 14 0 26 9 32 23 8 18 19 23 58 25 47 3 49
4 42 29 -3 14 -3 56 1 94 l7 69 93 0 94 0 0 -40 c0 -29 -4 -40 -15 -40 -9 0
-15 -9 -15 -22 l1 -23 18 22 c14 16 35 24 75 29 31 4 56 12 56 18 0 6 5 4 10
-4 6 -10 10 -11 10 -2 0 7 14 12 35 12 19 0 35 -4 35 -8 0 -4 12 -8 28 -7 16
0 26 -5 25 -12 -4 -16 12 -16 62 2 30 11 41 11 47 2 5 -8 18 -2 41 21 24 23
36 30 39 20 3 -8 15 4 31 30 15 23 32 42 37 42 6 0 10 8 10 19 0 13 10 21 34
25 33 6 35 9 52 79 9 39 21 75 27 78 10 7 4 212 -8 260 -6 21 -2 27 21 38 21
9 30 9 32 1 3 -8 8 -8 17 0 14 12 5 71 -19 119 -7 14 -16 40 -19 57 -3 18 -18
49 -32 69 -16 25 -25 52 -25 79 0 48 -23 118 -52 158 -20 28 -28 53 -72 213
-12 44 -32 100 -44 125 -11 25 -28 65 -36 90 l-15 45 -1 -41 c0 -23 -3 -56 -6
-73 -7 -31 -8 -32 -50 -25 -40 6 -46 4 -69 -25 -15 -17 -50 -42 -78 -57 -29
-14 -68 -40 -87 -58 -33 -31 -38 -33 -85 -27 -46 6 -50 8 -47 32 2 21 -4 29
-35 45 -45 23 -57 33 -66 57 -7 19 -47 23 -64 6 -6 -6 -22 -17 -35 -23 -19
-10 -23 -19 -23 -59 1 -26 -3 -47 -7 -47 -4 0 -8 -5 -8 -10 0 -19 -64 -98 -83
-103 -10 -3 -21 -15 -24 -26 -3 -14 -13 -21 -29 -21 -13 0 -24 -6 -24 -13 0
-14 -40 -37 -64 -37 -24 0 -54 -35 -120 -143 -9 -15 -14 -36 -11 -46 4 -13 -3
-26 -21 -40 -16 -12 -24 -27 -21 -36 4 -9 -2 -19 -15 -26 -17 -9 -24 -8 -33 5
-7 9 -16 16 -21 16 -8 0 -11 94 -4 110 1 3 4 68 6 144 3 91 1 142 -6 146 -6 3
-11 29 -11 57 -1 43 -7 57 -35 89 -19 20 -37 34 -41 30 -4 -4 -1 -11 7 -16 12
-7 9 -13 -11 -29 -16 -12 -33 -43 -43 -76 -10 -30 -21 -55 -25 -55 -6 0 -25
-31 -37 -63 -3 -9 -15 -17 -26 -17 -10 0 -17 4 -13 9 3 5 1 12 -5 16 -5 3 -10
0 -10 -8 0 -16 -58 -31 -82 -22 -28 11 -66 -12 -73 -44 -5 -22 -12 -31 -27
-31 -23 0 -57 -37 -58 -62 0 -9 -13 -21 -29 -26 -22 -8 -32 -20 -40 -47 -5
-20 -22 -45 -36 -57 -14 -11 -24 -26 -21 -33 3 -9 -14 -14 -57 -17 -34 -3 -92
-16 -128 -28 l-65 -23 -42 27 c-23 14 -54 26 -69 26 -19 0 -24 3 -15 9 9 6 1
11 -28 19 -53 13 -67 8 -75 -28 -8 -37 14 -157 32 -176 10 -10 13 -26 10 -47
-3 -18 1 -61 8 -97 18 -84 39 -314 33 -362 -2 -21 0 -39 5 -41 14 -4 -2 -47
-17 -47 -15 0 -46 32 -46 47 0 5 -9 18 -20 28 -11 10 -20 24 -20 32 0 12 -9
34 -32 73 -4 8 -11 22 -14 30 -3 8 -15 37 -27 63 -18 41 -22 45 -31 30 -41
-76 -151 -18 -215 112 -18 36 -34 75 -35 88 -2 12 -6 29 -9 37 -3 8 -8 28 -12
43 -3 16 -11 27 -17 25 -14 -5 -30 -57 -23 -75 2 -7 0 -13 -5 -13 -6 0 -10
-14 -10 -31 0 -16 4 -28 8 -25 4 2 14 1 21 -3 10 -6 8 -17 -6 -49 -16 -38 -21
-42 -54 -42 -29 0 -38 5 -42 21 -6 22 3 50 25 81 10 14 10 22 1 37 -10 15 -10
21 0 25 9 3 8 7 -3 15 -11 8 -16 6 -21 -6 -4 -14 -7 -12 -13 8 l-7 24 -16 -22
c-8 -13 -20 -23 -25 -23 -5 0 -16 -7 -24 -15 -9 -8 -20 -15 -25 -15 -12 0 -12
27 1 35 22 14 62 111 90 218 16 62 50 166 75 232 51 135 49 128 34 120 -6 -4
-35 -59 -66 -123 -51 -109 -65 -138 -106 -232 -9 -19 -26 -66 -38 -105 -13
-38 -27 -71 -31 -73 -4 -2 -8 -15 -8 -28 0 -13 -9 -33 -20 -44 -11 -11 -20
-27 -20 -35 0 -8 -9 -15 -20 -15 -11 0 -20 -5 -20 -11 0 -5 4 -7 10 -4 13 8
13 -1 -1 -28 l-12 -21 -9 24 c-5 14 -12 62 -15 108 -3 45 -10 85 -15 88 -4 3
-8 13 -8 22 0 10 -11 29 -25 44 -14 15 -25 32 -25 38 0 5 -5 10 -10 10 -6 0
-34 22 -63 50 -28 27 -59 50 -68 50 -9 0 -22 7 -29 15 -7 8 -21 15 -31 15 -11
0 -19 7 -19 15 0 8 -4 15 -10 15 -5 0 -10 6 -10 14 0 7 -6 19 -14 25 -7 6 -16
37 -19 68 -4 34 -12 62 -21 69 -9 6 -17 21 -19 33 -2 12 -25 45 -51 72 -26 28
-49 61 -51 75 -2 22 -53 78 -122 134 -11 8 -37 38 -58 65 -22 28 -44 53 -48
56 -4 3 -5 13 -2 21 4 10 -3 24 -16 37 -13 12 -20 21 -16 21 4 0 -2 16 -13 37
-10 20 -17 40 -14 45 3 5 0 16 -7 24 -9 11 -9 20 0 40 6 14 11 38 11 54 0 17
9 39 21 51 15 15 19 28 14 47 -8 34 -65 100 -87 101 -15 1 -50 34 -140 134
-14 15 -30 27 -35 27 -5 0 -18 18 -29 40 -10 22 -22 40 -26 40 -5 0 -8 7 -8
15 0 17 -33 81 -82 160 -17 28 -31 55 -32 61 -1 6 -9 19 -19 28 -9 10 -17 26
-17 36 0 10 -4 22 -10 25 -5 3 -10 22 -10 41 0 19 -4 34 -8 34 -9 0 -37 76
-47 128 -4 17 -10 32 -15 32 -4 0 -11 11 -14 25 -4 14 -11 23 -16 20 -5 -3
-11 4 -15 15 -3 11 -13 20 -21 20 -13 0 -20 45 -14 89 1 7 -8 22 -21 34 -18
17 -21 27 -16 69 6 51 1 64 -9 23z m3984 -1869 l33 -24 -33 -5 c-18 -3 -46 -9
-62 -13 -26 -6 -28 -5 -21 17 7 22 31 49 45 49 3 0 21 -11 38 -24z m-508 -275
c0 -6 -4 -13 -10 -16 -5 -3 -10 1 -10 9 0 9 5 16 10 16 6 0 10 -4 10 -9z
m-152 -374 c2 -10 -3 -17 -12 -17 -9 0 -16 -8 -16 -20 0 -23 -40 -46 -64 -37
-27 11 -18 34 26 66 45 33 61 35 66 8z m-1010 -588 c-2 -6 -8 -10 -13 -10 -5
0 -11 4 -13 10 -2 6 4 11 13 11 9 0 15 -5 13 -11z m262 -2388 c0 -14 -29 -21
-36 -9 -4 6 -3 8 4 4 6 -3 13 -2 17 4 8 12 15 13 15 1z"/>
<path d="M721 5774 c0 -11 3 -14 6 -6 3 7 2 16 -1 19 -3 4 -6 -2 -5 -13z"/>
<path d="M2200 5774 c-25 -8 -60 -19 -77 -25 -18 -6 -37 -7 -43 -4 -5 3 -10 2
-10 -3 0 -5 -13 -15 -30 -22 -31 -13 -34 -18 -24 -44 8 -21 33 -20 69 4 17 11
38 20 47 20 9 0 24 7 32 16 9 9 24 13 35 9 11 -3 22 -1 25 4 4 6 13 8 20 5 7
-3 16 2 19 10 4 9 14 16 24 16 17 1 16 2 -1 15 -23 18 -28 18 -86 -1z"/>
<path d="M1986 5671 c-4 -7 -5 -15 -2 -18 9 -9 19 4 14 18 -4 11 -6 11 -12 0z"/>
<path d="M3580 5610 c0 -5 5 -10 10 -10 6 0 10 5 10 10 0 6 -4 10 -10 10 -5 0
-10 -4 -10 -10z"/>
<path d="M3600 5570 c0 -11 7 -20 15 -20 8 0 15 6 15 14 0 8 -7 16 -15 20 -10
4 -15 -1 -15 -14z"/>
<path d="M2813 5383 c3 -33 13 -63 23 -72 15 -15 16 -13 10 19 -3 19 -9 52
-12 73 -11 60 -28 44 -21 -20z"/>
<path d="M3454 5240 c-9 -22 -20 -40 -25 -40 -5 0 -9 -10 -9 -23 0 -13 -13
-44 -30 -70 -16 -26 -30 -55 -30 -64 0 -9 -7 -21 -16 -28 -9 -6 -18 -23 -19
-37 -3 -30 -28 -80 -51 -102 -11 -11 -14 -25 -9 -45 l6 -29 77 77 c42 42 103
96 134 120 64 48 66 54 60 204 l-4 77 -34 0 c-31 0 -36 -4 -50 -40z"/>
<path d="M1458 5230 c-42 -13 -98 -62 -98 -87 0 -20 5 -23 41 -23 65 0 113 18
127 48 6 14 8 28 4 31 -5 3 -11 14 -15 24 -7 18 -17 20 -59 7z"/>
<path d="M2900 5181 c0 -35 4 -43 24 -51 28 -10 49 -52 66 -130 7 -30 19 -66
27 -79 l15 -23 28 27 c23 22 31 25 48 16 26 -14 62 -14 62 -1 0 6 -4 10 -9 10
-5 0 -16 12 -26 26 -13 20 -14 28 -4 40 9 11 6 19 -15 39 -15 14 -32 25 -39
25 -17 0 -86 38 -106 58 -9 8 -28 31 -43 50 l-28 35 0 -42z"/>
<path d="M3160 5000 c0 -13 5 -20 13 -17 6 2 12 10 12 17 0 7 -6 15 -12 18 -8
2 -13 -5 -13 -18z"/>
<path d="M3965 4993 c3 -15 11 -30 16 -34 5 -3 18 -30 28 -60 11 -30 31 -75
44 -100 14 -26 28 -55 31 -65 3 -11 4 8 1 40 -2 32 -9 64 -14 69 -6 6 -11 23
-11 37 0 14 -7 35 -15 46 -8 10 -15 26 -15 34 0 15 -47 60 -63 60 -5 0 -6 -12
-2 -27z"/>
<path d="M3074 4769 c-45 -23 -77 -51 -132 -117 -62 -73 -131 -169 -109 -152
3 3 46 44 95 91 49 48 116 105 149 127 98 66 95 102 -3 51z"/>
<path d="M2801 4764 c0 -11 3 -14 6 -6 3 7 2 16 -1 19 -3 4 -6 -2 -5 -13z"/>
<path d="M2767 4700 c-3 -11 -2 -20 3 -20 4 0 10 9 13 20 3 11 2 20 -3 20 -4
0 -10 -9 -13 -20z"/>
<path d="M2746 4643 c-6 -14 -5 -15 5 -6 7 7 10 15 7 18 -3 3 -9 -2 -12 -12z"/>
<path d="M3109 4651 c-26 -8 -140 -151 -121 -151 15 0 57 24 76 43 10 9 30 17
45 17 21 0 31 8 44 35 24 49 22 63 -8 61 -14 0 -30 -3 -36 -5z"/>
<path d="M4510 4226 c0 -9 5 -16 10 -16 6 0 10 4 10 9 0 6 -4 13 -10 16 -5 3
-10 -1 -10 -9z"/>
<path d="M2701 4067 c-6 -15 -14 -40 -17 -54 -10 -39 12 -20 26 22 14 43 7 71
-9 32z"/>
<path d="M5746 3831 c-4 -5 1 -27 10 -48 34 -79 89 -188 99 -195 17 -13 25 -9
25 11 0 10 7 21 15 25 8 3 15 10 15 15 0 17 -158 202 -164 192z"/>
<path d="M2650 3705 c-34 -89 -62 -297 -42 -309 12 -7 17 6 31 84 6 30 17 87
25 125 18 82 20 125 6 125 -6 0 -15 -11 -20 -25z"/>
<path d="M6940 3690 c0 -5 5 -10 11 -10 5 0 7 5 4 10 -3 6 -8 10 -11 10 -2 0
-4 -4 -4 -10z"/>
<path d="M6991 3625 c-1 -11 6 -31 15 -43 8 -12 10 -22 5 -22 -6 0 -2 -9 9
-20 20 -20 23 -29 21 -65 -1 -19 0 -19 7 -1 8 19 9 19 16 1 4 -11 2 -22 -6
-27 -10 -6 -9 -8 4 -8 10 0 21 -14 29 -37 6 -21 16 -41 22 -44 5 -4 10 -19 10
-33 0 -15 4 -29 9 -32 17 -11 -3 78 -23 108 -11 14 -19 32 -19 40 0 8 -7 23
-15 34 -8 10 -15 27 -15 37 0 9 -4 17 -8 17 -8 0 -41 58 -53 95 -7 20 -7 20
-8 0z"/>
<path d="M4850 2709 c0 -5 5 -7 10 -4 6 3 10 8 10 11 0 2 -4 4 -10 4 -5 0 -10
-5 -10 -11z"/>
<path d="M4460 2550 c0 -5 5 -10 10 -10 6 0 10 5 10 10 0 6 -4 10 -10 10 -5 0
-10 -4 -10 -10z"/>
<path d="M6240 2536 c0 -8 4 -17 9 -20 5 -4 7 3 4 14 -6 23 -13 26 -13 6z"/>
<path d="M6260 2491 c0 -6 4 -13 10 -16 6 -3 7 1 4 9 -7 18 -14 21 -14 7z"/>
<path d="M6280 2451 c0 -6 4 -13 10 -16 6 -3 7 1 4 9 -7 18 -14 21 -14 7z"/>
<path d="M6505 2310 c3 -5 8 -10 11 -10 2 0 4 5 4 10 0 6 -5 10 -11 10 -5 0
-7 -4 -4 -10z"/>
<path d="M4382 2268 c-17 -17 -15 -25 6 -30 15 -4 18 -1 14 18 -5 28 -4 28
-20 12z"/>
<path d="M6760 1610 c0 -5 5 -10 11 -10 5 0 7 5 4 10 -3 6 -8 10 -11 10 -2 0
-4 -4 -4 -10z"/>
<path d="M6255 1090 c-9 -14 4 -52 16 -45 12 8 12 42 0 50 -5 3 -12 1 -16 -5z"/>
<path d="M6308 1060 c-6 -39 -1 -52 12 -30 7 11 11 12 25 0 12 -10 19 -10 27
-2 9 9 8 12 -6 12 -19 0 -40 17 -48 40 -3 8 -7 -1 -10 -20z"/>
<path d="M5483 1046 c-18 -8 -23 -19 -23 -48 0 -31 4 -38 20 -38 17 0 20 7 20
40 0 22 5 40 10 40 6 0 10 -12 10 -26 0 -25 2 -26 38 -19 46 8 48 11 32 30 -8
10 -9 15 -1 15 6 0 11 5 11 10 0 13 -89 11 -117 -4z"/>
<path d="M6331 981 c-11 -7 -7 -16 19 -45 18 -19 41 -38 51 -41 15 -5 19 -16
19 -51 0 -38 3 -44 20 -44 19 0 20 5 18 68 -3 66 -4 67 -31 67 -21 -1 -27 4
-27 21 0 30 -39 44 -69 25z"/>
<path d="M5440 785 c0 -34 -1 -35 -40 -35 -29 0 -40 4 -40 15 0 11 -12 15 -49
15 -43 0 -53 -4 -77 -32 -17 -21 -29 -28 -31 -20 -3 6 -9 9 -15 6 -7 -4 -7 -9
0 -13 11 -7 15 -24 13 -58 -1 -20 -7 -23 -41 -23 -36 0 -40 -2 -40 -25 0 -22
-4 -25 -40 -25 -36 0 -40 -3 -40 -24 0 -34 -54 -86 -90 -86 -19 0 -29 -6 -33
-20 -3 -11 -12 -20 -21 -20 -21 0 -22 -56 -1 -64 40 -15 -18 -56 -82 -56 -48
-1 -107 -44 -83 -61 11 -8 12 -12 3 -16 -8 -2 -13 -22 -13 -44 0 -30 4 -39 18
-39 35 0 44 -16 16 -28 -23 -11 -26 -10 -31 8 -4 16 -14 20 -44 20 -28 0 -39
-4 -39 -15 0 -11 -11 -15 -40 -15 -33 0 -40 -3 -40 -19 0 -16 8 -21 43 -24
l42 -4 -42 -1 -43 -2 0 -40 0 -40 315 0 315 0 30 27 c17 14 30 32 30 40 0 7 7
13 15 13 8 0 15 9 15 20 0 19 35 60 66 78 6 4 26 28 44 54 17 27 36 48 41 48
5 0 9 7 9 16 0 18 28 49 44 49 6 0 12 12 14 28 2 15 8 27 13 27 5 0 9 23 9 50
0 54 9 61 40 30 11 -11 25 -20 30 -20 18 0 10 39 -10 50 -11 6 -20 20 -20 30
0 13 -7 20 -19 20 -16 0 -20 8 -23 38 l-3 37 -52 3 -53 3 0 40 c0 36 2 39 29
39 27 0 29 3 33 45 2 31 -1 46 -10 50 -21 8 -22 7 -22 -30z m-520 -550 c0 -11
-50 -36 -60 -30 -17 11 8 35 36 35 13 0 24 -2 24 -5z"/>
<path d="M5520 704 c0 -17 22 -14 28 4 2 7 -3 12 -12 12 -9 0 -16 -7 -16 -16z"/>
<path d="M5066 661 c-4 -7 -5 -15 -2 -18 9 -9 19 4 14 18 -4 11 -6 11 -12 0z"/>
<path d="M6530 636 c0 -2 7 -9 15 -16 12 -10 15 -10 15 4 0 9 -7 16 -15 16 -8
0 -15 -2 -15 -4z"/>
<path d="M3600 15 c0 -12 13 -15 58 -15 52 1 55 2 38 15 -27 20 -96 20 -96 0z"/>
</g>
</svg>
